<svg xmlns="http://www.w3.org/2000/svg" width="1440" height="900" viewBox="0 0 1440 900" role="img" aria-labelledby="title desc">
  <title id="title">Capital Generations managed sales system</title>
  <desc id="desc">An abstract diagram connecting targeting, human outreach, management, and reporting to qualified pipeline.</desc>
  <defs>
    <linearGradient id="bg" x1="0" y1="0" x2="1" y2="1">
      <stop offset="0" stop-color="#06172f"/>
      <stop offset="1" stop-color="#0c3760"/>
    </linearGradient>
    <linearGradient id="core" x1="0" y1="0" x2="1" y2="1">
      <stop offset="0" stop-color="#34b9ef"/>
      <stop offset="1" stop-color="#086fb8"/>
    </linearGradient>
    <radialGradient id="glow">
      <stop offset="0" stop-color="#31b7ed" stop-opacity=".42"/>
      <stop offset="1" stop-color="#31b7ed" stop-opacity="0"/>
    </radialGradient>
    <pattern id="grid" width="64" height="64" patternUnits="userSpaceOnUse">
      <path d="M64 0H0V64" fill="none" stroke="#8bcaf2" stroke-opacity=".06"/>
    </pattern>
  </defs>
  <rect width="1440" height="900" rx="54" fill="url(#bg)"/>
  <rect width="1440" height="900" rx="54" fill="url(#grid)"/>
  <circle cx="720" cy="455" r="340" fill="url(#glow)"/>
  <circle cx="720" cy="455" r="258" fill="none" stroke="#62c4f3" stroke-opacity=".1" stroke-width="24"/>
  <circle cx="720" cy="455" r="205" fill="none" stroke="#62c4f3" stroke-opacity=".16" stroke-width="2"/>
  <g>
    <circle cx="720" cy="455" r="160" fill="url(#core)" stroke="#79d1fb" stroke-width="2"/>
    <text x="720" y="396" text-anchor="middle" font-family="Arial, Helvetica, sans-serif" font-size="25" font-weight="700" letter-spacing="3" fill="#dff4ff">BUSINESS OUTCOME</text>
    <text x="720" y="458" text-anchor="middle" font-family="Arial, Helvetica, sans-serif" font-size="48" font-weight="800" fill="#ffffff">Qualified</text>
    <text x="720" y="514" text-anchor="middle" font-family="Arial, Helvetica, sans-serif" font-size="48" font-weight="800" fill="#ffffff">pipeline</text>
    <g transform="translate(650 555)" fill="#c9eaff">
      <rect x="0" y="40" width="16" height="38" rx="8" opacity=".68"/>
      <rect x="30" y="22" width="16" height="56" rx="8" opacity=".76"/>
      <rect x="60" y="6" width="16" height="72" rx="8" opacity=".86"/>
      <rect x="90" y="-14" width="16" height="92" rx="8"/>
      <rect x="120" y="-34" width="16" height="112" rx="8"/>
    </g>
  </g>
  <g font-family="Arial, Helvetica, sans-serif">
    <g transform="translate(130 175)">
      <rect width="380" height="150" rx="28" fill="#153b61" stroke="#7fcdf4" stroke-opacity=".35"/>
      <circle cx="72" cy="74" r="34" fill="#0d79bd"/>
      <circle cx="72" cy="74" r="18" fill="none" stroke="#bdeaff" stroke-width="6"/>
      <circle cx="72" cy="74" r="6" fill="#bdeaff"/>
      <path d="M86 59l28-26" stroke="#bdeaff" stroke-width="6" stroke-linecap="round"/>
      <text x="130" y="58" font-size="20" font-weight="700" letter-spacing="2" fill="#9bc7e2">TARGETING</text>
      <text x="130" y="94" font-size="30" font-weight="800" fill="#ffffff">Right accounts</text>
    </g>
    <g transform="translate(930 175)">
      <rect width="380" height="150" rx="28" fill="#153b61" stroke="#7fcdf4" stroke-opacity=".35"/>
      <circle cx="72" cy="74" r="34" fill="#0d79bd"/>
      <path d="M55 50c16 30 29 43 58 58l15-16-27-18-12 12c-11-7-19-15-26-26l12-12-18-27z" fill="#bdeaff" transform="scale(.75) translate(23 24)"/>
      <text x="130" y="58" font-size="20" font-weight="700" letter-spacing="2" fill="#9bc7e2">OUTREACH</text>
      <text x="130" y="94" font-size="30" font-weight="800" fill="#ffffff">Real conversations</text>
    </g>
    <g transform="translate(130 615)">
      <rect width="380" height="150" rx="28" fill="#153b61" stroke="#7fcdf4" stroke-opacity=".35"/>
      <circle cx="72" cy="74" r="34" fill="#0d79bd"/>
      <circle cx="61" cy="63" r="10" fill="none" stroke="#bdeaff" stroke-width="5"/>
      <circle cx="88" cy="68" r="9" fill="none" stroke="#bdeaff" stroke-width="5"/>
      <path d="M43 99c3-17 13-26 28-26s25 9 28 26M79 99c2-14 10-21 22-21s20 7 22 21" fill="none" stroke="#bdeaff" stroke-width="5" stroke-linecap="round"/>
      <text x="130" y="58" font-size="20" font-weight="700" letter-spacing="2" fill="#9bc7e2">MANAGEMENT</text>
      <text x="130" y="94" font-size="25" font-weight="800" fill="#ffffff">Daily accountability</text>
    </g>
    <g transform="translate(930 615)">
      <rect width="380" height="150" rx="28" fill="#153b61" stroke="#7fcdf4" stroke-opacity=".35"/>
      <circle cx="72" cy="74" r="34" fill="#0d79bd"/>
      <path d="M45 99V49M45 99h56M57 85l13-17 12 8 19-29" fill="none" stroke="#bdeaff" stroke-width="6" stroke-linecap="round" stroke-linejoin="round"/>
      <text x="130" y="58" font-size="20" font-weight="700" letter-spacing="2" fill="#9bc7e2">REPORTING</text>
      <text x="130" y="94" font-size="30" font-weight="800" fill="#ffffff">Clear visibility</text>
    </g>
  </g>
  <g fill="none" stroke="#75c9f3" stroke-width="3" stroke-opacity=".42">
    <path d="M510 250C600 260 614 310 650 350"/>
    <path d="M930 250C840 260 826 310 790 350"/>
    <path d="M510 690C600 675 614 625 650 575"/>
    <path d="M930 690C840 675 826 625 790 575"/>
  </g>
  <g fill="#54c8f3">
    <circle cx="510" cy="250" r="6"/><circle cx="930" cy="250" r="6"/><circle cx="510" cy="690" r="6"/><circle cx="930" cy="690" r="6"/>
  </g>
</svg>
